# xmcd CD database file
#
# Track frame offsets:
#	183
#	16970
#	57935
#	87920
#	99940
#	141500
#	173670
#	203820
#	239623
#	280873
#	303710
#
# Disc length: 4616 seconds
#
# Revision: 0
# Processed by: cddbd v1.5.2PL0 Copyright (c) Steve Scherf et al.
# Submitted via: CDex 1.70beta2
#
DISCID=9712060b
DTITLE=Wolf Lintz - The Forbidden World
DYEAR=1999
DGENRE=New Age
TTITLE0=Down to the deep cleft - part I
TTITLE1=Down to the deep cleft - part II
TTITLE2=Endless galeries
TTITLE3=Abyss
TTITLE4=Quiet caves, luminous water
TTITLE5=A passage in time
TTITLE6=The people of Kasskara
TTITLE7=Into the giant forest
TTITLE8=Crossing the aquatic world
TTITLE9=The lost temple
TTITLE10=Imrat
EXTD=YEAR: 1999
EXTT0=
EXTT1=
EXTT2=
EXTT3=
EXTT4=
EXTT5=
EXTT6=
EXTT7=
EXTT8=
EXTT9=
EXTT10=
PLAYORDER=
